<?xml version="1.0" encoding="utf-8"?>
<!-- Generator: Adobe Illustrator 24.1.2, SVG Export Plug-In . SVG Version: 6.00 Build 0)  -->
<svg version="1.1" id="Warstwa_3" xmlns="http://www.w3.org/2000/svg" xmlns:xlink="http://www.w3.org/1999/xlink" x="0px" y="0px"
	 viewBox="0 0 430 430" style="enable-background:new 0 0 430 430;" xml:space="preserve">
<style type="text/css">
	.st0{fill:#121331;}
	.st1{fill:#08A88A;}
	.st2{fill:none;stroke:#08A88A;stroke-width:12.25;stroke-miterlimit:14;}
	.st3{fill-opacity:0;}
	.st4{fill:#131432;}
	.st5{fill:none;}
</style>
<g>
	<path class="st0" d="M294.2,381.27c-4.25,0-8.52-0.31-12.69-0.92c-2.2-0.32-4.04-1.83-4.78-3.93l-7.63-21.47l-20.57,9.77
		c-2,0.95-4.37,0.72-6.15-0.6c-6.83-5.07-12.87-11.11-17.95-17.95c-1.32-1.78-1.56-4.15-0.6-6.16l9.78-20.57l-21.48-7.63
		c-2.09-0.74-3.61-2.58-3.93-4.78c-0.61-4.17-0.92-8.44-0.92-12.69c0-4.25,0.31-8.51,0.92-12.68c0.32-2.2,1.83-4.04,3.93-4.78
		l21.48-7.63l-9.79-20.58c-0.95-2.01-0.72-4.38,0.61-6.16c5.08-6.82,11.11-12.86,17.94-17.94c1.78-1.33,4.15-1.56,6.16-0.61
		l20.58,9.79l7.64-21.48c0.75-2.09,2.59-3.6,4.78-3.93c8.33-1.22,17.04-1.22,25.37,0c2.2,0.32,4.04,1.83,4.78,3.93l7.63,21.48
		l20.58-9.79c2-0.95,4.38-0.72,6.16,0.61c6.83,5.08,12.86,11.12,17.94,17.94c1.33,1.78,1.56,4.15,0.61,6.16l-9.79,20.59l21.48,7.63
		c2.09,0.74,3.61,2.59,3.93,4.79c0.61,4.17,0.92,8.43,0.92,12.68c0,4.25-0.31,8.52-0.92,12.69c-0.32,2.2-1.83,4.04-3.93,4.79
		l-21.48,7.63l9.78,20.57c0.95,2.01,0.72,4.37-0.6,6.16c-5.08,6.84-11.12,12.88-17.95,17.95c-1.78,1.32-4.15,1.55-6.15,0.6
		l-20.57-9.77l-7.63,21.47c-0.75,2.09-2.59,3.6-4.78,3.93C302.71,380.96,298.45,381.27,294.2,381.27z M286.78,368.91
		c4.9,0.48,9.91,0.48,14.82,0l8.62-24.23c0.57-1.6,1.79-2.88,3.36-3.53c1.57-0.65,3.34-0.6,4.87,0.12l23.23,11.04
		c3.83-3.13,7.33-6.64,10.47-10.47l-11.04-23.23c-0.73-1.53-0.77-3.3-0.12-4.87c0.65-1.57,1.93-2.79,3.53-3.36l24.25-8.62
		c0.24-2.46,0.36-4.94,0.36-7.41c0-2.47-0.12-4.95-0.36-7.4l-24.25-8.62c-1.6-0.57-2.88-1.79-3.53-3.36
		c-0.65-1.57-0.6-3.34,0.12-4.87l11.05-23.24c-3.14-3.83-6.64-7.33-10.47-10.47l-23.24,11.05c-1.53,0.73-3.3,0.77-4.87,0.12
		c-1.57-0.65-2.79-1.93-3.36-3.53l-8.62-24.25c-4.91-0.48-9.9-0.48-14.81,0l-8.62,24.25c-0.57,1.6-1.79,2.88-3.36,3.53
		c-1.57,0.65-3.34,0.6-4.87-0.13l-23.23-11.05c-3.83,3.14-7.33,6.65-10.47,10.47l11.05,23.24c0.73,1.53,0.77,3.3,0.12,4.87
		c-0.65,1.57-1.93,2.79-3.53,3.36l-24.25,8.62c-0.24,2.45-0.36,4.93-0.36,7.4c0,2.48,0.12,4.96,0.36,7.41l24.25,8.62
		c1.6,0.57,2.88,1.79,3.53,3.36c0.65,1.57,0.6,3.34-0.12,4.87l-11.04,23.23c3.14,3.83,6.65,7.34,10.47,10.47l23.23-11.04
		c1.53-0.73,3.3-0.77,4.87-0.12c1.57,0.65,2.79,1.93,3.36,3.53L286.78,368.91z M374.26,306.17L374.26,306.17L374.26,306.17z"/>
	<path class="st1" d="M294.19,327.2c-18.12,0-32.86-14.74-32.86-32.86s14.74-32.86,32.86-32.86c18.12,0,32.86,14.74,32.86,32.86
		S312.31,327.2,294.19,327.2z M294.19,273.49c-11.5,0-20.86,9.36-20.86,20.86s9.36,20.86,20.86,20.86c11.5,0,20.86-9.36,20.86-20.86
		S305.69,273.49,294.19,273.49z"/>
	<path class="st0" d="M160.96,274.83c-6.81,0-13.58-0.6-20.12-1.79c-2.23-0.4-4.04-2.03-4.68-4.21l-4.75-16.11l-13.31,10.24
		c-1.8,1.38-4.22,1.63-6.27,0.65c-12.21-5.9-23.16-13.86-32.53-23.67c-1.56-1.64-2.07-4.02-1.31-6.15l5.62-15.8l-16.78,0.47
		c-2.25,0.03-4.38-1.16-5.45-3.16c-6.45-12.01-10.63-24.9-12.42-38.32c-0.3-2.24,0.69-4.46,2.55-5.74l13.83-9.48l-13.83-9.47
		c-1.87-1.28-2.86-3.5-2.56-5.74c1.79-13.44,5.97-26.33,12.41-38.31c1.08-2,3.16-3.2,5.45-3.16l16.79,0.47l-5.63-15.81
		c-0.76-2.14-0.25-4.52,1.32-6.16c9.38-9.78,20.32-17.74,32.54-23.66c2.04-0.99,4.48-0.74,6.28,0.64l13.3,10.24l4.74-16.09
		c0.64-2.18,2.46-3.81,4.69-4.21c13.18-2.37,27.06-2.37,40.25,0c2.23,0.4,4.05,2.03,4.69,4.21l4.74,16.09l13.29-10.24
		c1.8-1.39,4.23-1.64,6.28-0.65c12.2,5.9,23.15,13.86,32.54,23.66c1.57,1.64,2.08,4.03,1.32,6.17l-5.62,15.81l16.79-0.47
		c2.29-0.04,4.38,1.16,5.45,3.16c6.43,11.96,10.61,24.84,12.41,38.31c0.3,2.25-0.69,4.47-2.56,5.75l-13.83,9.47l13.83,9.48
		c1.87,1.28,2.86,3.5,2.55,5.75c-1.8,13.42-5.98,26.31-12.43,38.31c-1.07,2-3.2,3.19-5.45,3.16l-16.77-0.47l5.62,15.8
		c0.76,2.14,0.25,4.52-1.32,6.16c-9.39,9.82-20.34,17.78-32.54,23.67c-2.04,0.99-4.47,0.73-6.27-0.65l-13.3-10.24l-4.75,16.11
		c-0.64,2.17-2.45,3.8-4.68,4.21C174.54,274.23,167.77,274.83,160.96,274.83z M146.6,261.82c9.41,1.34,19.32,1.34,28.73,0
		l6.16-20.89c0.56-1.9,2.02-3.4,3.9-4.01c1.88-0.61,3.94-0.25,5.51,0.95l17.25,13.28c8.52-4.49,16.3-10.16,23.22-16.9l-7.29-20.5
		c-0.66-1.87-0.36-3.94,0.8-5.54c1.16-1.6,3.02-2.5,5.02-2.47l21.76,0.61c4.27-8.68,7.25-17.85,8.88-27.34l-17.95-12.3
		c-1.63-1.12-2.61-2.97-2.61-4.95s0.98-3.83,2.61-4.95l17.95-12.29c-1.63-9.51-4.6-18.68-8.86-27.33l-21.78,0.61
		c-2.01,0.02-3.86-0.87-5.02-2.47c-1.16-1.6-1.46-3.67-0.8-5.54l7.29-20.5c-6.93-6.72-14.72-12.39-23.25-16.9L190.9,85.66
		c-1.57,1.21-3.63,1.56-5.51,0.95c-1.88-0.61-3.34-2.11-3.9-4.01l-6.15-20.86c-9.48-1.35-19.28-1.34-28.76,0l-6.14,20.86
		c-0.56,1.9-2.02,3.4-3.9,4.01c-1.88,0.61-3.95,0.26-5.51-0.95l-17.24-13.27c-8.53,4.51-16.32,10.18-23.24,16.9l7.29,20.5
		c0.66,1.87,0.36,3.94-0.8,5.54c-1.16,1.6-3.06,2.49-5.02,2.47l-21.78-0.61c-4.27,8.67-7.24,17.84-8.86,27.33l17.94,12.29
		c1.63,1.12,2.61,2.97,2.61,4.95c0,1.98-0.98,3.83-2.61,4.95l-17.95,12.3c1.62,9.49,4.59,18.66,8.87,27.34l21.77-0.61
		c2-0.03,3.86,0.87,5.02,2.47s1.46,3.67,0.8,5.54l-7.29,20.5c6.91,6.73,14.69,12.39,23.22,16.89l17.26-13.28
		c1.57-1.21,3.63-1.56,5.51-0.95c1.88,0.61,3.34,2.11,3.9,4.01L146.6,261.82z"/>
	<path class="st1" d="M160.96,203.3c-22.9,0-41.53-18.63-41.53-41.52c0-22.9,18.63-41.53,41.53-41.53
		c22.89,0,41.52,18.63,41.52,41.53C202.48,184.67,183.85,203.3,160.96,203.3z M160.96,132.25c-16.28,0-29.53,13.25-29.53,29.53
		c0,16.28,13.25,29.52,29.53,29.52c16.28,0,29.52-13.24,29.52-29.52C190.48,145.5,177.24,132.25,160.96,132.25z"/>
</g>
</svg>
